<?xml version="1.0" encoding="UTF-8"?>
<svg width="400" height="140" xmlns="http://www.w3.org/2000/svg" xmlns:svg="http://www.w3.org/2000/svg">
 <title>Whats On Tap1</title>
 <g display="inline">
  <title>Layer 1</title>
  <path id="path0" fill-rule="evenodd" fill="#000000" d="m189.424979,12.189c-3.175,4.846 -2.975,12.312 0.564,21.047c3.407,8.407 3.606,13.124 1.024,24.259c-0.337,1.45 -0.612,2.715 -0.612,2.812c0,0.096 4.5,0.175 10,0.175c5.5,0 10,-0.079 10,-0.175c0,-0.097 -0.275,-1.362 -0.612,-2.812c-2.582,-11.135 -2.383,-15.852 1.024,-24.259c3.539,-8.735 3.739,-16.201 0.564,-21.047c-0.936,-1.428 -21.016,-1.428 -21.952,0m19.504,3.993c0.118,0.495 0.338,1.755 0.489,2.8l0.274,1.9l-5.646,0l-5.645,0l0,2l0,2l5.568,0l5.568,0l-0.409,1.5c-0.225,0.825 -1.202,3.433 -2.172,5.795c-3.138,7.641 -3.653,13.177 -2.007,21.605l0.527,2.7l-5.075,0l-5.075,0l0.527,-2.7c1.646,-8.428 1.131,-13.964 -2.007,-21.605c-0.97,-2.362 -1.947,-4.97 -2.172,-5.795l-0.409,-1.5l1.768,0l1.768,0l0,-2l0,-2l-1.845,0l-1.846,0l0.274,-1.9c0.594,-4.117 -0.422,-3.7 9.017,-3.7c8.291,0 8.314,0.002 8.528,0.9m-152.528,40.7l0,3.2l54,0l54,0l0,-3.2l0,-3.2l-54,0l-54,0l0,3.2m180,0l0,3.2l54,0l54,0l0,-3.2l0,-3.2l-54,0l-54,0l0,3.2m-167.6,43.016l0,20.215l3.427,-0.115l3.428,-0.116l-0.036,-10l-0.036,-10l1.969,-1.336c2.962,-2.009 6.453,-1.898 7.912,0.252c0.657,0.968 0.749,2.164 0.861,11.184l0.125,10.1l3.404,0l3.403,0l-0.128,-10.9c-0.122,-10.273 -0.179,-10.992 -0.992,-12.5c-3.057,-5.664 -9.758,-6.668 -15.662,-2.346l-0.925,0.677l0.125,-7.666l0.125,-7.666l-3.5,0.001l-3.5,0l0,20.216m-9.701,-19.1c-3.109,0.102 -3.564,0.214 -4.062,1c-0.628,0.988 -7.437,24.721 -7.437,25.92c0,0.42 -0.18,0.764 -0.4,0.764c-0.22,0 -0.4,-0.269 -0.4,-0.598c0,-1.141 -8.104,-25.605 -8.712,-26.302c-0.816,-0.933 -4.943,-0.988 -5.853,-0.078c-0.641,0.642 -9,25.619 -9.079,27.13c-0.025,0.466 -0.269,-0.052 -0.543,-1.152c-1.759,-7.065 -7.195,-25.32 -7.713,-25.9c-0.911,-1.021 -8.323,-1.058 -7.932,-0.039c0.14,0.364 2.898,9.19 6.129,19.615l5.875,18.953l3.384,-0.115l3.384,-0.114l3.03,-9.404c1.667,-5.172 3.746,-11.652 4.62,-14.4c0.875,-2.748 1.656,-4.636 1.737,-4.196c0.081,0.44 0.927,3.23 1.881,6.2c0.954,2.97 2.926,9.135 4.383,13.7l2.649,8.3l3.353,0c2.846,0 3.385,-0.106 3.566,-0.7c0.117,-0.385 2.834,-9.145 6.038,-19.467c3.204,-10.322 5.775,-18.872 5.714,-19c-0.061,-0.128 -1.686,-0.181 -3.612,-0.117m99.801,0.002l-2.9,0.117l0,3.606c0,4.563 0.691,9.147 1.519,10.078c1.007,1.133 2.945,0.752 3.655,-0.719c0.558,-1.153 1.302,-12.994 0.826,-13.139c-0.11,-0.034 -1.505,-0.008 -3.1,0.057m62.609,0.62c-18.289,6.233 -17.054,33.569 1.73,38.32c16.528,4.179 29.651,-11.089 23.549,-27.398c-3.52,-9.408 -15.074,-14.4 -25.279,-10.922m77.677,-0.738c-0.007,0 -0.052,1.395 -0.1,3.1l-0.086,3.101l5.9,-0.001l5.9,0l0,16.6l0,16.6l3.8,0l3.8,0l0,-16.6l0,-16.6l5.8,0l5.8,0l0,-2.991l0,-2.991l-15.4,-0.109c-8.47,-0.06 -15.406,-0.109 -15.414,-0.109m-162.742,3.9c-0.186,0.495 -0.549,2.16 -0.808,3.7c-0.711,4.23 -0.606,4.079 -3.049,4.384l-2.187,0.274l0,1.691c0,2.079 0.528,2.651 2.447,2.651l1.486,0l0.134,8.9c0.15,10.047 0.544,11.528 3.533,13.28c2.175,1.274 6.722,1.121 9.522,-0.322l2.121,-1.093l-0.883,-1.483c-1.514,-2.541 -1.772,-2.711 -3.284,-2.164c-3.636,1.315 -3.876,0.753 -3.876,-9.049l0,-8.069l3.619,0l3.619,0l-0.119,-2.488l-0.119,-2.489l-3.5,0.122l-3.5,0.123l0,-4.434l0,-4.434l-2.41,0c-2.133,0 -2.449,0.104 -2.746,0.9m97.783,3.397c10.713,5.563 7.588,24.419 -4.293,25.904c-10.333,1.291 -17.37,-10.572 -12.29,-20.719c2.835,-5.662 10.843,-8.166 16.583,-5.185m-125.713,4.283c-1.624,0.508 -4.291,1.961 -5.875,3.201c-0.741,0.581 -0.734,0.636 0.27,2.153c1.378,2.083 2.187,2.208 5.165,0.8c5.547,-2.623 9.126,-1.12 9.126,3.833l0,1.715l-3.5,0.236c-9.847,0.664 -15.003,5.813 -12.138,12.122c1.948,4.289 9.106,5.469 13.791,2.273c0.898,-0.612 1.865,-1.26 2.151,-1.439c0.363,-0.229 0.649,0.044 0.95,0.908c0.541,1.552 1.405,2.018 3.744,2.018l1.85,0l-0.124,-10.7c-0.14,-12.085 -0.228,-12.474 -3.467,-15.401c-2.513,-2.271 -7.76,-3.026 -11.943,-1.719m67.354,0.046c-4.062,1.297 -6.765,5.581 -5.912,9.374c0.752,3.35 2.597,4.944 7.844,6.783c4.801,1.682 5.4,2.105 5.4,3.811c0,3.228 -4.156,4.174 -8.579,1.953c-2.433,-1.221 -3.464,-1.018 -4.601,0.908c-1.147,1.946 -0.904,2.359 2.275,3.858c10.058,4.746 21.474,-3.304 16.442,-11.593c-1.021,-1.681 -2.544,-2.572 -7.114,-4.161c-4.096,-1.424 -5.223,-2.229 -5.223,-3.73c0,-2.452 4.353,-3.45 7.944,-1.82c2.459,1.116 3.007,1.007 4.228,-0.838c1.282,-1.937 1.157,-2.17 -2.016,-3.775c-2.798,-1.416 -7.585,-1.761 -10.688,-0.77m91.709,-0.247c-1.579,0.479 -2.874,1.222 -4.065,2.333c-1.025,0.956 -1.103,0.971 -1.333,0.252c-0.827,-2.585 -0.797,-2.564 -3.57,-2.564l-2.609,0l0,14l0,14l3.4,0l3.4,0l0,-10.138c0,-11.061 -0.096,-10.583 2.391,-11.873c2.75,-1.427 5.757,-1.143 7.191,0.679c0.775,0.986 0.818,1.57 0.818,11.186l0,10.146l3.639,0l3.639,0l-0.139,-10.5l-0.139,-10.5l-1.131,-2.303c-2.073,-4.222 -6.771,-6.15 -11.492,-4.718m75.018,0.341c-4.765,1.647 -6.491,3.146 -5.603,4.864c1.258,2.434 2.232,2.666 5.174,1.233c5.658,-2.757 9.434,-1.191 9.434,3.911l0,1.554l-3.522,0.228c-9.601,0.622 -14.589,5.294 -12.478,11.689c1.665,5.045 11.855,6.113 15.574,1.632c0.776,-0.935 1.114,-0.781 1.614,0.734c0.529,1.601 0.997,1.835 3.674,1.835l1.997,0l-0.13,-10.5c-0.146,-11.903 -0.375,-12.908 -3.561,-15.635c-2.726,-2.333 -7.97,-2.999 -12.173,-1.545m35.579,0.016c-0.895,0.417 -2.267,1.321 -3.051,2.009l-1.424,1.251l-0.252,-1.26c-0.405,-2.027 -0.895,-2.336 -3.696,-2.336l-2.551,0l0,18.4l0,18.4l3.4,0l3.4,0l0,-5.67l0,-5.669l0.9,0.819c4.809,4.38 13.407,1.694 16.516,-5.16c5.343,-11.777 -3.341,-25.407 -13.242,-20.784m4.963,5.546c3.64,2.272 3.277,13.857 -0.505,16.164c-1.812,1.105 -5.312,1.025 -7.073,-0.162l-1.359,-0.916l0,-6.54l0,-6.54l1.468,-1.188c2.313,-1.872 5.263,-2.195 7.469,-0.818m-265.937,12.482c0,4.18 -5.545,6.812 -9.011,4.278c-3.008,-2.2 0.247,-5.586 6.011,-6.254c1.32,-0.153 2.535,-0.303 2.7,-0.333c0.165,-0.03 0.3,1.009 0.3,2.309m234.319,0.119c-0.261,5.44 -9.971,7.374 -9.906,1.973c0.026,-2.197 2.149,-3.51 6.488,-4.015c1.595,-0.185 3.043,-0.361 3.218,-0.389c0.176,-0.029 0.266,1.065 0.2,2.431"/>
 </g>
</svg>